<svg xmlns="http://www.w3.org/2000/svg" width="15" height="20" viewBox="0 0 15 20">
    <path fill="#FFF" fill-rule="nonzero" d="M14.996 17.288L13.923 4.393a.531.531 0 0 0-.513-.503h-2.208C11.172 1.738 9.524 0 7.5 0S3.829 1.738 3.798 3.89H1.59c-.268 0-.49.216-.513.503L.004 17.288c0 .017-.004.033-.004.05C0 18.805 1.26 20 2.813 20h9.374C13.739 20 15 18.806 15 17.337c0-.016 0-.032-.004-.049zM7.5 1.104c1.452 0 2.637 1.244 2.667 2.786H4.833c.03-1.542 1.215-2.786 2.667-2.786zm4.687 17.792H2.813c-.973 0-1.763-.687-1.778-1.534L2.062 4.998h1.732v1.677c0 .307.23.552.517.552.288 0 .518-.245.518-.552V4.998h5.338v1.677c0 .307.23.552.518.552.287 0 .517-.245.517-.552V4.998h1.732l1.031 12.364c-.015.847-.808 1.534-1.778 1.534z"/>
</svg>
