<svg xmlns="http://www.w3.org/2000/svg" width="32" height="32" viewBox="0 0 32 32">
    <path fill="#646569" fill-rule="nonzero" d="M32 21.656c0-4.664-3.143-8.74-7.575-9.967C24.147 5.196 18.78 0 12.22 0 5.48 0 0 5.481 0 12.219c0 2.196.584 4.333 1.694 6.21l-1.65 5.963 5.964-1.649a12.173 12.173 0 0 0 5.68 1.682A10.368 10.368 0 0 0 21.656 32c1.862 0 3.673-.496 5.263-1.438l5.036 1.393-1.393-5.036A10.307 10.307 0 0 0 32 21.656zm-25.696-.94l-3.57.987.988-3.57-.225-.352a10.309 10.309 0 0 1-1.622-5.562c0-5.704 4.64-10.344 10.344-10.344 5.703 0 10.344 4.64 10.344 10.344 0 5.703-4.64 10.344-10.344 10.344-1.98 0-3.903-.561-5.563-1.622l-.352-.225zm22.962 8.55l-2.65-.733-.353.23a8.436 8.436 0 0 1-4.607 1.362 8.49 8.49 0 0 1-8.029-5.77c5.614-.647 10.081-5.114 10.729-10.728a8.49 8.49 0 0 1 5.769 8.03c0 1.642-.47 3.235-1.362 4.606l-.23.354.733 2.649zM15.666 13a1 1 0 1 1 0-2 1 1 0 0 1 0 2zM9 13a1 1 0 1 1 0-2 1 1 0 0 1 0 2zm3.333 0a1 1 0 1 1 0-2 1 1 0 0 1 0 2z"/>
</svg>
