<svg xmlns="http://www.w3.org/2000/svg" width="32" height="32" viewBox="0 0 32 32">
    <path fill="#646569" fill-rule="nonzero" d="M31.934 19.66L30.528 16l1.404-3.662a1 1 0 0 0-.304-1.135l-3.046-2.468-.616-3.874a1.002 1.002 0 0 0-.83-.83l-3.873-.616L20.795.37a1.003 1.003 0 0 0-1.136-.304l-3.66 1.406L12.337.068a.994.994 0 0 0-1.134.304L8.735 3.417l-3.873.616a1.002 1.002 0 0 0-.83.83l-.616 3.874L.37 11.205a1 1 0 0 0-.304 1.133L1.47 16 .066 19.662a1 1 0 0 0 .304 1.133l3.046 2.468.616 3.874c.068.426.404.762.83.83l3.873.615 2.468 3.046a.995.995 0 0 0 1.136.304L16 30.528l3.662 1.404a1.001 1.001 0 0 0 1.136-.304l2.468-3.046 3.873-.615c.426-.068.762-.404.83-.83l.616-3.874 3.046-2.468c.336-.272.458-.732.304-1.135zm-3.414-3.302l1.282 3.34-2.782 2.251a.996.996 0 0 0-.358.62l-.562 3.534-3.533.562a.996.996 0 0 0-.62.358l-2.248 2.781-3.34-1.282a.996.996 0 0 0-.718 0l-3.34 1.282-2.252-2.781a.996.996 0 0 0-.62-.358l-3.533-.562-.562-3.534a.996.996 0 0 0-.358-.62L2.194 19.7l1.282-3.34a.999.999 0 0 0-.002-.717L2.194 12.3l2.782-2.251a.996.996 0 0 0 .358-.62l.562-3.534 3.533-.562a.996.996 0 0 0 .62-.358l2.25-2.78 3.34 1.282c.23.088.486.088.716 0l3.34-1.281 2.252 2.781c.156.192.376.32.62.358l3.533.562.562 3.534a.996.996 0 0 0 .358.62l2.782 2.251-1.282 3.34c-.088.23-.088.486 0 .716zm-17.502-2.336a2.003 2.003 0 1 1 .001-4.005 2.003 2.003 0 0 1-.001 4.005zm10.019 9.016a2.003 2.003 0 1 1 .001-4.005 2.003 2.003 0 0 1-.001 4.005zM20.66 9.151a.81.81 0 0 0-1.164.203l-8.35 12.275a.904.904 0 0 0 .193 1.222c.146.11.317.163.485.163.26 0 .518-.128.68-.367l8.35-12.274a.904.904 0 0 0-.194-1.222z"/>
</svg>
