<svg xmlns="http://www.w3.org/2000/svg" width="32" height="32" viewBox="0 0 32 32">
    <path fill="#646569" fill-rule="nonzero" d="M19.973 21h2.009A6.5 6.5 0 1 1 15 15.019V13l4 3-4 3v-1.973A4.5 4.5 0 1 0 19.973 21zm7.613-7.788A6.002 6.002 0 0 1 32 19c0 3.307-2.688 6-6 6h-2.752c.285-.63.495-1.3.62-2h2.135a4 4 0 0 0 0-8h-.03a4.5 4.5 0 0 0-7.271-3.025 7 7 0 1 0-13.616 3.129A4.001 4.001 0 0 0 5.997 23h1.135c.125.7.335 1.37.62 2H6c-3.313 0-6-2.688-6-6a6.004 6.004 0 0 1 3.002-5.197 9 9 0 0 1 16.652-4.537 6.504 6.504 0 0 1 7.932 3.946z"/>
</svg>
