<svg xmlns="http://www.w3.org/2000/svg" width="32" height="32" viewBox="0 0 32 32">
    <path fill="#646569" fill-rule="nonzero" d="M31.99 14.157a1.839 1.839 0 0 0-.708-1.264l-1.822-1.42.685-2.26a1.84 1.84 0 0 0-.166-1.447 1.837 1.837 0 0 0-1.169-.868l-2.29-.535-.293-2.337a1.832 1.832 0 0 0-2.16-1.57l-2.31.443L20.538.883a1.847 1.847 0 0 0-2.365-.705c-.06.028-.12.062-.17.098l-2.006 1.398-1.93-1.346A1.835 1.835 0 0 0 12.641.04a1.835 1.835 0 0 0-1.185.844L10.24 2.899l-2.311-.443a1.834 1.834 0 0 0-1.42.317 1.837 1.837 0 0 0-.739 1.253l-.292 2.337-2.424.566-.114.037-.042.019c-.88.385-1.32 1.322-1.046 2.227l.684 2.261-1.9 1.48-.11.095-.03.034a1.855 1.855 0 0 0-.06 2.456l1.487 1.78-1.205 2.19-.048.109-.014.04c-.3.9.109 1.877.952 2.273l2.13 1-.2 2.347a1.838 1.838 0 0 0 .463 1.38c.337.375.82.596 1.323.606l2.353.047.771 2.224c.165.477.524.868.984 1.073.46.205.99.21 1.455.014l2.168-.914 1.702 1.818.089.08.034.025c.337.248.73.37 1.119.37.492 0 .978-.195 1.334-.575l1.609-1.718 2.168.915c.464.195.994.19 1.454-.015.46-.205.82-.596.984-1.072l.772-2.225 2.488-.05.118-.013.043-.008a1.853 1.853 0 0 0 1.49-1.962l-.2-2.346 2.13-1.001c.456-.214.807-.612.962-1.092a1.84 1.84 0 0 0-.137-1.449l-1.14-2.07 1.487-1.781c.325-.38.481-.883.43-1.381zm-3.69 2.356a1.111 1.111 0 0 0-.125 1.25l1.37 2.488-2.57 1.208c-.417.196-.67.636-.631 1.095l.24 2.832-2.839.057a1.11 1.11 0 0 0-1.022.743l-.93 2.685-2.617-1.104a1.11 1.11 0 0 0-1.236.263l-1.942 2.074-1.942-2.074a1.108 1.108 0 0 0-1.235-.263l-2.617 1.104-.93-2.684a1.11 1.11 0 0 0-1.023-.744l-2.84-.057.241-2.832c.04-.459-.214-.9-.631-1.095L2.45 20.25l1.37-2.489c.22-.4.17-.9-.125-1.25l-1.804-2.158 2.21-1.721c.362-.28.516-.76.383-1.197l-.823-2.72 2.765-.647a1.11 1.11 0 0 0 .846-.94l.353-2.82 2.789.536a1.11 1.11 0 0 0 1.153-.514l1.469-2.433 2.33 1.624c.377.264.885.264 1.263 0l2.33-1.624 1.468 2.432a1.11 1.11 0 0 0 1.155.515l2.788-.536.353 2.82c.057.458.397.835.846.94l2.765.647-.824 2.72c-.132.438.022.918.384 1.197l2.209 1.722-1.804 2.158zm-9.912-2.988l-3.701 3.705-1.005-1.006a.938.938 0 1 0-1.326 1.329l1.668 1.669a.934.934 0 0 0 1.326 0l4.365-4.369a.94.94 0 0 0 0-1.328.937.937 0 0 0-1.327 0z"/>
</svg>
