<svg xmlns="http://www.w3.org/2000/svg" width="108" height="26" viewBox="0 0 108 26">
    <path fill="#FFF" fill-rule="nonzero" d="M73.854 24.992v.035H71.41s-.036-9.807 0-10.334c.037-.528 1.477-.856 1.86-1.11.383-.255-1.076-.819-1.44-.91-.365-.091-.092-1.947-.092-1.947l.019-.1V.267h3.5v10.68c0 .11.018.237.036.364.347.037.675.055 1.021-.018.037-.528.019-1.037.019-1.546V8.163 6.616 5.033 3.487 1.904.23h3.5v24.744h-3.5v-7.969-2.547-.528h-1.076v11.062h-1.404zM65.881 2.984c-.027.73.005 7.597.005 7.597s-.237.71.876 1.346c.71.4 2.114.837 2.042 1.256-.055.418-.055.6-.985.91-.153.05-.29.07-.414.064l-.041.009a9.485 9.485 0 0 0-1.422.327c-.584.182-.51.182-.51.691v5.604c0 .31.035.6.054.91.018.11.036.218.073.31.09.218.2.29.419.29.2 0 .347-.09.401-.29.055-.183.091-.383.11-.583.018-.218.018-.455.018-.673v-5.186c0-.163-.019-.345.036-.49.346-.092 2.461-.11 3.482-.037v4.439c0 .6.019 1.22 0 1.82-.018.4-.036.818-.127 1.219-.328 1.364-1.149 2.256-2.534 2.565a6.013 6.013 0 0 1-2.844-.018c-.57-.138-1.039-.377-1.415-.705a.25.25 0 0 1-.135-.06c-1.057-.818-1.221-2.238-1.221-2.238s.055-6.186-.11-7.132c-.164-.964 1.769-1.164 2.17-1.492.401-.327-1.167-.545-1.659-.727-.482-.178-.213-2.657-.201-2.762V3.922c.018-.345.036-.691.091-1.037.274-1.528 1.313-2.547 2.844-2.784.857-.145 1.714-.145 2.57.073 1.66.419 2.37 1.783 2.517 2.911.036.31.054.637.054.946V10.2h-3.5V4.395c0-.236-.018-.491-.037-.728a1.92 1.92 0 0 0-.109-.436c-.073-.182-.219-.255-.401-.255a.587.587 0 0 0-.097.008zM29.934 13.67l-.035.004s-.045-.015-.107-.113a3.237 3.237 0 0 1-.038-.032.27.27 0 0 1-.019-.4c.091-.092.2-.183.328-.237l.134-.06c.714-.415 1.908-1.008 1.908-1.941V.302h1.732V.32h2.152c.054 0 .109.018.182.036.073.182.055.364.055.546v11.116c-.128.2-.31.292-.493.364-.346.128-.693.237-1.039.346-.208.061-.416.122-.618.183-.198.168-.425.525.235.764.857.309 2.334.91 2.37 1.419.037.51 0 9.952 0 9.952H32.89c-.036 0-.09-.019-.164-.037a1.07 1.07 0 0 1-.036-.255v-.4-8.915c0-.582-.037-.655-.565-.91-.292-.145-.62-.254-.93-.364-.347-.127-.693-.236-1.021-.364a1.097 1.097 0 0 1-.24-.131zm-6.37-12.212C23.983.877 24.582.466 25.36.25a5.07 5.07 0 0 1 2.607-.054c1.458.345 2.279 1.31 2.57 2.747.073.31.091.637.091.946v5.913c0 .128-.018.237-.018.382-.054.018-.11.055-.164.055H27.62c-.036 0-.09-.018-.145-.037-.073-.163-.037-.327-.037-.49V4.47c0-.31-.036-.601-.055-.91a1.9 1.9 0 0 0-.073-.31c-.072-.182-.218-.254-.4-.254-.183 0-.329.072-.402.254a.484.484 0 0 0-.054.219 4.223 4.223 0 0 0-.073.673c0 1.019-.019 2.038 0 3.056 0 .874.2 1.71.565 2.511.273.619.62 1.183 1.02 1.729.092.127.183.273.274.4-.036.218-.2.291-.364.346-.107.047-.215.092-.324.137-.278.3-.483.66-.06.808.785.272 3.866 1.219 3.83 1.819-.037.6 0 6.004 0 6.004s-.329 2.857-1.277 3.33a9.69 9.69 0 0 0-.213.113 2.913 2.913 0 0 1-.665.444c-.085.08-.088.116-.088.116l-.003-.074c-.186.083-.386.15-.599.202a5.874 5.874 0 0 1-2.971 0c-1.714-.418-2.462-1.874-2.571-3.02-.018-.255-.036-.51-.036-.764v-5.731c0-.146.018-.291.018-.473.091-.018.164-.055.237-.055h2.734c.037 0 .092.018.165.037.018.072.054.163.054.236.018.127 0 .237 0 .364v5.003c0 .255 0 .51.037.764.018.164.054.328.127.473.11.255.31.364.584.346.255-.018.419-.164.51-.382.11-.31.128-.618.128-.946V18.48c0-.364-.037-.728-.055-1.092-.073-.91-.42-1.728-.857-2.529a.798.798 0 0 0-.364-.327c-.292-.11-.602-.237-.894-.328-.583-.164-1.185-.31-1.768-.473a7.622 7.622 0 0 1-.083-.024 1.01 1.01 0 0 1-.263-.015c-2.26-.436-1.532-1.255-1.222-1.492.31-.236 1.185-1.237.766-2.328-.438-1.092-.255-5.004-.219-5.914.056-1.36.697-2.19 1.03-2.5zm37.894 12.28a1.203 1.203 0 0 1-.42.32c-.256.11-.511.2-.766.31-.183.072-.365.145-.547.236-.165.091-.201.2-.146.382.018.055.055.11.073.164.364.819.51 1.674.51 2.565v3.73c0 .4-.036.819-.146 1.22-.328 1.255-1.112 2.11-2.388 2.419a6.169 6.169 0 0 1-2.88.018c-1.605-.364-2.535-1.728-2.644-3.147-.018-.182-.018-.364-.018-.546v-5.877-.418c.11-.019.2-.055.273-.055h2.607c.092 0 .183.018.274.036.091.182.054.346.054.51v5.149c0 .218-.018.418.019.637.036.2.073.418.164.618.09.237.292.328.547.328a.506.506 0 0 0 .398-.173c-.014-.765-.064-3.645-.033-4.651.036-1.183-1.841-3.184-1.805-3.584.11-1.02 1.86-.928 2.17-1.056.31-.127-3.118-1.273-3.537-1.455-.09-.039-.177-.135-.26-.263-.103-.055-.194-.119-.233-.19-.838-.527-.638-1.983-.638-3.093V3.688c0-.51.091-1.001.292-1.456.419-1 1.148-1.656 2.187-1.965.875-.255 1.769-.255 2.662-.054 1.386.327 2.188 1.237 2.516 2.601.073.31.11.637.11.946.018 2.056 0 4.094 0 6.15 0 .11-.02.2-.02.328-.528.072-1.038.018-1.549.036-.547-.018-1.057 0-1.64-.055v-.545-5.368c0-.327 0-.637-.092-.946-.036-.127-.109-.255-.237-.31-.237-.108-.492 0-.601.237-.037.091-.055.2-.073.31-.018.29-.055.582-.055.855 0 .678.013 1.357.007 2.035.183 2.054.811 4.491 2.71 5.096.948.291 3.373.964 3.391 1.547 0 .192.016.385-.236.608zM38.907 1.181c.427-.484.995-.82 1.712-.987a6.244 6.244 0 0 1 2.898.019c1.677.4 2.389 1.764 2.535 2.892.036.292.054.6.054.91v5.731c-.073.164-.036.328-.128.455-.036.018-.072.037-.127.037h-3.154a.338.338 0 0 1-.127-.037c-.092-.145-.055-.29-.055-.436V4.488c0-.218 0-.418-.019-.637-.018-.2-.054-.4-.11-.582-.054-.182-.2-.255-.382-.255s-.328.073-.4.237a1.87 1.87 0 0 0-.037.098v8.27s.127.128-.401.419c-.511.31-2.37.855-1.915.946.456.09 2.59.182 2.553.728-.033.494-.007 7.286-.001 8.563.062.03.135.043.22.043.218 0 .346-.109.419-.345.036-.182.073-.364.09-.546.02-.218.02-.419.02-.637v-5.24c0-.163-.02-.327.036-.491.054-.018.09-.036.145-.036h3.1c.054 0 .11.018.164.018.11.164.073.327.073.491v5.695c0 .31-.018.6-.055.91a3.684 3.684 0 0 1-.711 1.8c-.42.565-.985.947-1.659 1.129a6.236 6.236 0 0 1-3.063.054c-1.385-.327-2.17-1.255-2.497-2.601-.092-.364-.092-.746-.092-1.128v-5.095-1.091c0-.51.11-.546-.583-.71-.346-.073-.711-.127-1.076-.218a8.066 8.066 0 0 1-.875-.273 1.08 1.08 0 0 1-.346-.2.45.45 0 0 1-.113-.131c-.163-.125-.24-.303-.014-.545.51-.582 2.096-1 2.242-1.455.146-.455.073-7.423.22-8.133.236-1.219 1.458-2.42 1.458-2.42v.061zM13.26.32a.377.377 0 0 1 .103-.018h3.063c.036 0 .09.018.164.018-.091.09-.073.182-.055.273V11.455c-.2.218-.437.29-.693.364-.51.127-1.039.236-1.55.382-.182.054-.382.109-.546.2-.274.145-.31.364-.073.582.273.273.62.418.984.564.456.182.912.346 1.35.528.109.036.218.09.328.163.127.073.2.182.2.328V20.934c0 .31.037.637.073.946.018.11.055.2.11.291.182.273.62.237.747-.055.036-.072.055-.181.073-.254.018-.291.054-.582.054-.855v-6.004-.182c.019-.182-.072-.31-.218-.419-.274-.2-.584-.327-.894-.455-.328-.127-.656-.236-.984-.382-.2-.073-.383-.182-.565-.273-.11-.054-.2-.145-.274-.218-.127-.127-.11-.346.037-.437a2.69 2.69 0 0 1 .601-.309c.274-.09.566-.127.839-.2.328-.073.656-.164.966-.237.091-.018.183-.054.255-.09.146-.055.22-.146.22-.31v-.418V.92c.036-.2.017-.382.072-.564.055-.018.11-.036.146-.036h3.154c.055 0 .11.018.182.036.018.055.055.091.055.128v11.262c-.128.218-.346.273-.547.346-.475.152-.95.289-1.426.424-.074.179-.015.403.442.63 1.039.51 1.969.728 1.969 1.183 0 .455.09 6.313.09 6.313s.037 3.73-2.532 4.3c-.214.09-.445.161-.694.213-.948.2-1.896.2-2.844-.036-1.55-.4-2.37-1.62-2.516-2.948-.037-.31-.037-.637-.037-.946V14.62c0-.564-.036-.636-.547-.855-.164-.072-.346-.109-.51-.182-.11-.036-.237-.072-.346-.109a.818.818 0 0 1-.436-.354l-.039.008s-.638-1.073.292-1.8c.93-.729 1.24-1.274 1.24-1.857V.32h.517zm-2.825 12.127c.016.233.066.463.193.575.31.273 1.313.946 1.35 1.419.036.473 0 10.57 0 10.57h-.711c-.486.07-2.449.052-2.845-.002a1.072 1.072 0 0 1-.037-.255v-.4-12.336-.545c-.11.145-.127.254-.146.364-.09 1-.2 1.983-.291 2.983-.11 1.02-.22 2.056-.328 3.075-.11 1.019-.201 2.02-.31 3.039-.11 1.037-.22 2.074-.329 3.129l-.054.491c-.018.146-.037.291-.073.473-.292.073-.565.037-.82.037h-.821c-.273 0-.547.036-.802-.019-.11-.29-.274-1.837-.401-3.402-.091-1.128-.219-2.256-.328-3.402-.11-1.11-.2-2.238-.329-3.348-.127-1.128-.2-2.256-.4-3.384 0 .073-.019.146-.019.218v12.827c0 .146-.018.291-.018.455-.091.018-.146.036-.2.036H.163c-.036 0-.091-.036-.128-.054A.537.537 0 0 1 0 24.809C.018 16.713.018 8.598.018.483c0-.036.018-.09.037-.127C.109.338.145.32.182.32h4.102c.055 0 .11.018.2.036.019.127.055.273.074.4.11 1.092.2 2.165.31 3.257l.328 3.311.219 2.311c.036.419.072.837.127 1.274.018.127 0 .273.128.4C6.053 7.652 6.399 4.03 6.8.374c.11-.018.2-.036.292-.036h3.883c.11 0 .2.018.328.036.018.146.037.255.037.382v10.062c0 .254-.073.436-.274.582-.127.09-.237.236-.346.364-.159.21-.252.445-.284.683zM101.273.357c.055-.019.11-.055.146-.055h3.045c.073 0 .146.018.237.036l.055.273V21.807c0 .2-.037.4.054.6.091.019.2.037.292.037h2.005c.146 0 .292.018.474.018.073.437.037.855.037 1.274 0 .418.018.837-.018 1.273-.073.019-.128.055-.201.055h-6.016c-.037 0-.091-.036-.128-.055-.054-.4-.09-22.942-.036-24.434l.054-.219zM89.661 21.317c0 .364-.019.728-.092 1.092-.255 1.51-1.33 2.565-2.844 2.784-.857.127-1.732.127-2.57-.073-1.586-.382-2.334-1.674-2.498-2.82a6.008 6.008 0 0 1-.073-1.001V4.016c0-.455.018-.91.146-1.347.401-1.4 1.294-2.274 2.753-2.51.893-.146 1.786-.164 2.661.072 1.35.364 2.115 1.292 2.443 2.62.092.382.092.782.092 1.183-.018 2.874-.018 5.748-.018 8.64v8.644zm-4.577-.6c0 .273 0 .546.019.819.018.181.055.363.11.527a.329.329 0 0 0 .23.234c.055.026.12.039.189.039.182 0 .328-.073.4-.255.037-.127.074-.273.092-.4.018-.273.036-.546.036-.819V4.543c0-.273-.018-.546-.054-.819a3.624 3.624 0 0 0-.146-.473.314.314 0 0 0-.146-.166.35.35 0 0 0-.255-.07.334.334 0 0 0-.329.218c-.072.2-.127.4-.164.619a3.542 3.542 0 0 0-.02.573l.002.191c.036 2.693.036 5.367.036 8.06v8.042zm14.421.599c0 .345-.018.691-.073 1.037-.274 1.455-1.112 2.438-2.589 2.765a5.862 5.862 0 0 1-2.807-.018c-1.459-.364-2.261-1.346-2.534-2.784a6.008 6.008 0 0 1-.073-1V3.94c0-.455.036-.91.164-1.346.383-1.328 1.276-2.184 2.68-2.438.893-.164 1.786-.164 2.662.073 1.403.363 2.187 1.31 2.479 2.674.073.346.091.691.091 1.037v17.376zM95.013 3.49a.585.585 0 0 0-.011.05c-.036.31-.073.637-.073.946v16.411c0 .218 0 .455.018.673.019.164.055.328.11.492.05.168.18.243.344.253a.518.518 0 0 0 .039.002c.182 0 .346-.073.4-.255a1.92 1.92 0 0 0 .11-.437c.018-.327.037-.673.037-1V4.668c0-.31-.019-.637-.055-.946l-.002-.014a1.19 1.19 0 0 0-.162-.495v-.001a.362.362 0 0 0-.638 0l-.002.004a1.088 1.088 0 0 0-.115.274z"/>
</svg>
